<svg width="1597" height="503" viewBox="0 0 1597 503" fill="none" xmlns="http://www.w3.org/2000/svg">
<path d="M538.982 0H615.277V80.5573H538.982V0ZM538.982 115.405H615.277V496.631H538.982V115.405Z" fill="#FDF7EF"/>
<path d="M680.523 0H756.817V263.853L1020.14 57.8913H1125.84L849.377 269.944L1133.31 496.631H1022.6L756.762 287.004V496.631H680.468V0H680.495H680.523Z" fill="#FDF7EF"/>
<path d="M0 496.658V0H273.973C458.54 0 478.457 111.875 478.457 159.956C478.457 208.037 458.54 319.939 273.918 319.939H76.2942V496.685H0V496.658ZM76.2942 246.2H260.197C355.772 246.2 396.547 220.407 396.547 159.956C396.547 99.5041 355.772 73.7117 260.197 73.7117H76.2942V246.173V246.2Z" fill="#FDF7EF"/>
<path d="M1337.99 503C1270.3 503 1216.36 493.244 1186.1 475.51C1152.27 455.701 1135.83 425.03 1135.83 381.746C1135.83 271.408 1250 256.989 1439.1 233.137C1464.33 229.957 1490.17 226.696 1517.36 223.003C1517.36 152.822 1477.91 127.946 1366.63 127.946C1274.51 127.946 1233.43 154.628 1233.43 214.433H1156.5C1156.5 114.47 1235.06 54.7734 1366.65 54.7734C1523.25 54.7734 1593.07 104.957 1593.07 217.478V409.91C1593.07 461.845 1596.2 496.235 1596.23 496.586H1526.85C1526.85 496.397 1524.88 477.666 1526.85 447.4C1505.11 480.63 1429.23 502.973 1338.05 502.973L1337.99 503ZM1517.36 288.171C1403.28 301.054 1322.97 311.862 1275.2 325.876C1230.86 338.867 1212.79 354.876 1212.79 381.099C1212.79 434.894 1282.17 442.926 1323.5 442.926C1391 442.926 1436.56 434.894 1466.9 417.672C1500.85 398.402 1517.36 366.222 1517.36 319.3V288.171Z" fill="#FDF7EF"/>
</svg>
